<svg xmlns="http://www.w3.org/2000/svg" viewBox="0 0 169 111">
  <defs>
    <style>
      .a {
        fill: #2f3e49;
      }

      .b {
        fill: #868e95;
      }
    </style>
  </defs>
  <g>
    <g>
      <g>
        <path class="a" d="M15.5,72.7c-4.2-1.5-8.1-7-8.1-11.5v-11L4.5,48.6,3.3,45.3l4.5-2.9a8.3,8.3,0,0,1,7.8-5.7,8.4,8.4,0,0,1,8.2,8.1c0,4.3,4.3,8.9,4.3,8.9L62.6,73.8S19.9,74.3,15.5,72.7Z"/>
        <path class="b" d="M47.9,76.4c-13.2,0-30.2-.2-33.2-1.3h0c-5.2-1.9-9.8-8.4-9.8-13.9V51.7L2.5,50.3.2,44.2l5.6-3.5a10.6,10.6,0,0,1,9.8-6.5A10.8,10.8,0,0,1,26.3,44.8c0,2.5,2.3,5.6,3.4,6.9l42,24.5H47.9Zm-31.5-6c2.2.8,19.3,1.1,37.1,1l-27-15.8-.2-.2c-.5-.6-5-5.5-5-10.6a5.8,5.8,0,0,0-5.7-5.6,5.7,5.7,0,0,0-5.4,3.9l-.3.9L6.3,46.3l.2.5,3.4,1.9V61.2C9.9,64.7,13.1,69.2,16.4,70.4Z"/>
      </g>
      <polygon class="b" points="74.8 82.5 61.2 74.7 74.8 66.9 74.8 82.5"/>
    </g>
    <g>
      <g>
        <path class="a" d="M61,38.6C56.7,37,52.9,31.5,52.9,27V16L50,14.4l-1.3-3.3,4.6-2.9a8.1,8.1,0,0,1,7.8-5.7,8.3,8.3,0,0,1,8.1,8.2c0,4.2,4.4,8.8,4.4,8.8l34.5,20.1S65.4,40.1,61,38.6Z"/>
        <path class="b" d="M93.3,42.2c-13.1,0-30.1-.2-33.2-1.3h0c-5.2-1.8-9.7-8.3-9.7-13.9V17.5L48,16.2,45.7,10l5.5-3.5a10.7,10.7,0,0,1,20.5,4.2c0,2.4,2.3,5.5,3.5,6.8L117.1,42H93.3Zm-31.5-6c2.3.8,19.3,1.1,37.1,1L72,21.5l-.3-.3c-.5-.5-5-5.4-5-10.5A5.7,5.7,0,0,0,61.1,5a5.6,5.6,0,0,0-5.4,4l-.3.8-3.6,2.3.2.6,3.4,1.8V27C55.4,30.5,58.6,35.1,61.8,36.2Z"/>
      </g>
      <polygon class="b" points="120.3 48.4 106.7 40.5 120.3 32.7 120.3 48.4"/>
    </g>
    <g>
      <g>
        <path class="a" d="M109.5,101.2c-4.2-1.5-8.1-7.1-8.1-11.6v-11L98.5,77l-1.2-3.3,4.5-2.9a8.1,8.1,0,0,1,7.8-5.7,8.4,8.4,0,0,1,8.2,8.2c0,4.2,4.3,8.8,4.3,8.8l34.5,20.2S113.9,102.8,109.5,101.2Z"/>
        <path class="b" d="M141.9,104.9c-13.2,0-30.2-.2-33.2-1.3h0c-5.2-1.9-9.8-8.4-9.8-14V80.1l-2.4-1.3-2.3-6.1,5.5-3.5a10.7,10.7,0,0,1,9.9-6.6,10.8,10.8,0,0,1,10.7,10.7c0,2.5,2.2,5.6,3.4,6.9l41.9,24.5H141.9Zm-31.6-6c2.3.7,19.4,1,37.2,1l-27-15.8-.2-.3c-.5-.5-5-5.4-5-10.5a5.9,5.9,0,0,0-5.7-5.7,5.6,5.6,0,0,0-5.4,4l-.3.9-3.6,2.2.2.6,3.4,1.8V89.6C103.9,93.1,107.1,97.7,110.3,98.9Z"/>
      </g>
      <polygon class="b" points="168.8 111 155.2 103.2 168.8 95.3 168.8 111"/>
    </g>
    <circle class="b" cx="15.6" cy="44.7" r="2.5"/>
    <circle class="b" cx="61.1" cy="10.1" r="2.5"/>
    <circle class="b" cx="109.6" cy="73.7" r="2.5"/>
  </g>
</svg>
