<svg xmlns="http://www.w3.org/2000/svg" viewBox="0 0 89 65">
  <defs>
    <style>
      .a {
        fill: #2f3e49;
      }

      .b {
        fill: #b2bdc6;
      }
    </style>
  </defs>
  <g>
    <g>
      <polygon class="a" points="86.3 47.9 2.7 47.9 2.7 27.2 6.2 11.8 72.2 11.8 86.3 27.2 86.3 47.9"/>
      <path class="b" d="M88.8,50.3H.2V27L4.3,9.3h69l15.5,17ZM5.2,45.4H83.8V28.2L71.1,14.3H8.2l-3,13.2Z"/>
    </g>
    <g>
      <polygon class="b" points="59.6 29.7 2.7 29.7 2.7 24.8 54.6 24.8 54.6 14.3 32.8 14.3 32.8 9.3 59.6 9.3 59.6 29.7"/>
      <polygon class="b" points="86.3 29.7 54.6 29.7 54.6 12.5 59.6 12.5 59.6 24.8 86.3 24.8 86.3 29.7"/>
      <rect class="b" x="10.7" y="0.2" width="51.5" height="4.96"/>
    </g>
    <path class="b" d="M88.8,50.3H.2V27L4.3,9.3h69l15.5,17ZM5.2,45.4H83.8V28.2L71.1,14.3H8.2l-3,13.2Z"/>
    <path class="b" d="M68.4,64.8a8.7,8.7,0,1,1,8.7-8.7A8.7,8.7,0,0,1,68.4,64.8Zm0-12.4a3.8,3.8,0,0,0,0,7.5,3.8,3.8,0,1,0,0-7.5Z"/>
    <path class="b" d="M19.1,64.8a8.7,8.7,0,1,1,8.7-8.7A8.7,8.7,0,0,1,19.1,64.8Zm0-12.4a3.8,3.8,0,0,0,0,7.5,3.8,3.8,0,1,0,0-7.5Z"/>
  </g>
</svg>
