<svg xmlns="http://www.w3.org/2000/svg" viewBox="0 0 158 224">
  <defs>
    <style>
      .a {
        fill: #3a646f;
      }

      .b {
        fill: #73c8de;
      }

      .c {
        fill: #c7e9f2;
      }
    </style>
  </defs>
  <g>
    <g>
      <rect class="a" x="12.7" y="31.8" width="6.3" height="15.37"/>
      <rect class="a" x="25.3" y="31.8" width="6.3" height="15.37"/>
      <rect class="a" x="56.9" y="16" width="6.3" height="15.37"/>
      <rect class="a" x="63.2" y="31.8" width="6.3" height="15.37"/>
      <rect class="a" x="82.2" y="16.4" width="6.3" height="15.37"/>
      <rect class="a" x="88.5" y="31.8" width="6.3" height="15.37"/>
      <rect class="a" x="113.7" y="31.8" width="6.3" height="15.37"/>
      <rect class="b" x="25.3" y="62.5" width="6.3" height="15.37"/>
      <rect class="b" x="37.9" y="62.5" width="6.3" height="15.37"/>
      <rect class="b" x="50.6" y="62.5" width="6.3" height="15.37"/>
      <rect class="b" x="75.8" y="62.5" width="6.3" height="15.37"/>
      <rect class="b" x="88.5" y="62.5" width="6.3" height="15.37"/>
      <rect class="a" x="101.1" y="62.5" width="6.3" height="15.37"/>
      <rect class="b" x="113.7" y="62.5" width="6.3" height="15.37"/>
      <rect class="b" x="50.6" y="93.3" width="6.3" height="15.37"/>
      <rect class="b" x="63.2" y="93.3" width="6.3" height="15.37"/>
      <rect class="b" x="75.8" y="93.3" width="6.3" height="15.37"/>
      <rect class="b" x="88.5" y="93.3" width="6.3" height="15.37"/>
      <rect class="b" x="101.1" y="93.3" width="6.3" height="15.37"/>
      <rect class="c" x="50.6" y="124" width="6.3" height="15.37"/>
      <rect class="b" x="75.8" y="124" width="6.3" height="15.37"/>
      <rect class="c" x="88.5" y="124" width="6.3" height="15.37"/>
      <rect class="c" x="63.2" y="154.7" width="6.3" height="15.37"/>
      <rect class="c" x="75.8" y="154.7" width="6.3" height="15.37"/>
      <rect class="c" x="101.1" y="124" width="6.3" height="15.37"/>
      <rect class="b" x="113.7" y="93.3" width="6.3" height="15.37"/>
      <rect class="a" x="139" y="31.8" width="6.3" height="15.37"/>
      <rect class="b" x="19" y="47.2" width="6.3" height="15.37"/>
      <rect class="a" x="31.6" y="47.2" width="6.3" height="15.37"/>
      <rect class="b" x="44.3" y="47.2" width="6.3" height="15.37"/>
      <rect class="b" x="56.9" y="47.2" width="6.3" height="15.37"/>
      <rect class="b" x="69.5" y="47.2" width="6.3" height="15.37"/>
      <rect class="b" x="82.2" y="47.2" width="6.3" height="15.37"/>
      <rect class="b" x="94.8" y="47.2" width="6.3" height="15.37"/>
      <rect class="a" x="107.4" y="47.2" width="6.3" height="15.37"/>
      <rect class="b" x="120.1" y="47.2" width="6.3" height="15.37"/>
      <rect class="b" x="31.6" y="77.9" width="6.3" height="15.37"/>
      <rect class="b" x="44.3" y="77.9" width="6.3" height="15.37"/>
      <rect class="a" x="56.9" y="77.9" width="6.3" height="15.37"/>
      <rect class="b" x="69.5" y="77.9" width="6.3" height="15.37"/>
      <rect class="b" x="82.2" y="77.9" width="6.3" height="15.37"/>
      <rect class="b" x="94.8" y="77.9" width="6.3" height="15.37"/>
      <rect class="b" x="107.4" y="77.9" width="6.3" height="15.37"/>
      <rect class="c" x="44.3" y="108.6" width="6.3" height="15.37"/>
      <rect class="c" x="56.9" y="108.6" width="6.3" height="15.37"/>
      <rect class="c" x="69.5" y="108.6" width="6.3" height="15.37"/>
      <rect class="b" x="82.2" y="108.6" width="6.3" height="15.37"/>
      <rect class="c" x="94.8" y="108.6" width="6.3" height="15.37"/>
      <rect class="c" x="56.9" y="139.4" width="6.3" height="15.37"/>
      <rect class="b" x="69.5" y="139.4" width="6.3" height="15.37"/>
      <rect class="c" x="82.2" y="139.4" width="6.3" height="15.37"/>
      <rect class="c" x="75.8" y="184.8" width="6.3" height="15.37"/>
      <rect class="c" x="69.5" y="169.4" width="6.3" height="15.37"/>
      <rect class="c" x="82.2" y="169.4" width="6.3" height="15.37"/>
      <rect class="c" x="94.8" y="139.4" width="6.3" height="15.37"/>
      <rect class="c" x="107.4" y="108.6" width="6.3" height="15.37"/>
      <rect class="b" x="120.1" y="77.9" width="6.3" height="15.37"/>
      <rect class="b" x="132.7" y="47.2" width="6.3" height="15.37"/>
      <rect class="a" x="126.4" y="16.4" width="6.3" height="15.37"/>
      <rect class="a" x="31.6" y="16.4" width="6.3" height="15.37"/>
      <rect class="a" y="0.2" width="6.3" height="15.37"/>
      <rect class="a" x="107.4" y="0.4" width="6.3" height="15.37"/>
      <rect class="a" x="151.7" y="2.2" width="6.3" height="15.37"/>
      <rect class="b" y="62.5" width="6.3" height="15.37"/>
      <rect class="b" x="145.3" y="16.4" width="6.3" height="15.37"/>
    </g>
    <path class="c" d="M78.2,223.8c-7.2,0-12.6-3.7-12.6-8.5s5.4-8.6,12.6-8.6,12.6,3.7,12.6,8.6S85.4,223.8,78.2,223.8Zm0-10.8c-4.1,0-6.2,1.7-6.3,2.3s2.2,2.2,6.3,2.2,6.2-1.7,6.3-2.2S82.2,213,78.2,213Z"/>
  </g>
</svg>
