<svg xmlns="http://www.w3.org/2000/svg" viewBox="0 0 267 270">
  <defs>
    <style>
      .a {
        fill: #f96400;
      }

      .b {
        fill: #f99d00;
      }
    </style>
  </defs>
  <g>
    <polygon class="a" points="148.3 101 143.3 101 143.3 81.8 151.8 73 155.4 76.4 148.3 83.8 148.3 101"/>
    <polygon class="a" points="120.6 114.6 125.6 114.6 125.6 90.5 117.1 81.7 113.5 85.1 120.6 92.5 120.6 114.6"/>
    <rect class="a" x="111.5" y="80.5" width="34.2" height="4.96"/>
    <rect class="a" x="11" y="30.5" width="34.2" height="4.96"/>
    <rect class="a" x="152.2" y="101" width="34.2" height="4.96"/>
    <polygon class="b" points="164.6 77 152.2 77 145 66.8 128.6 66.8 128.6 61.9 147.6 61.9 154.8 72.1 164.6 72.1 164.6 77"/>
    <polygon class="a" points="87.7 64.5 75.4 64.5 68.2 54.3 34 54.3 34 49.4 70.7 49.4 77.9 59.5 87.7 59.5 87.7 64.5"/>
    <polygon class="a" points="160 152.1 147.7 152.1 140.5 142 106.3 142 106.3 137 143.1 137 150.3 147.2 160 147.2 160 152.1"/>
    <polygon class="b" points="131.6 66.8 119.2 66.8 112 56.7 97.4 56.7 97.4 51.7 114.6 51.7 121.8 61.9 131.6 61.9 131.6 66.8"/>
    <polygon class="b" points="83.2 40.6 70.9 40.6 63.7 30.4 49.1 30.4 49.1 25.5 66.3 25.5 73.5 35.6 83.2 35.6 83.2 40.6"/>
    <polygon class="b" points="125.6 126.6 113.3 126.6 106.1 116.4 91.5 116.4 91.5 111.4 108.7 111.4 115.9 121.6 125.6 121.6 125.6 126.6"/>
    <polygon class="b" points="34 54.3 34 42 44.1 34.8 44.1 20.2 49.1 20.2 49.1 37.4 38.9 44.6 38.9 54.3 34 54.3"/>
    <polygon class="a" points="53.4 75.3 41.1 75.3 33.9 65.1 19.3 65.1 19.3 60.1 36.5 60.1 43.6 70.3 53.4 70.3 53.4 75.3"/>
    <polygon class="a" points="57.8 124.9 57.8 137.2 47.6 144.4 47.6 159 42.6 159 42.6 141.8 52.8 134.6 52.8 124.9 57.8 124.9"/>
    <polygon class="b" points="79.7 85.5 67.4 85.5 60.2 75.3 43.7 75.3 43.7 70.4 62.7 70.4 69.9 80.5 79.7 80.5 79.7 85.5"/>
    <polygon class="b" points="80.7 134.8 71.4 134.8 64.2 124.6 57.8 124.6 57.8 119.7 66.8 119.7 74 129.8 80.7 129.8 80.7 134.8"/>
    <polygon class="a" points="138.2 137 138.2 124.7 148.3 117.5 148.3 101 153.3 101 153.3 120 143.1 127.2 143.1 137 138.2 137"/>
    <polygon class="a" points="0.2 36.1 0.2 23.8 10.3 16.6 10.3 0.1 15.3 0.1 15.3 19.1 5.1 26.3 5.1 36.1 0.2 36.1"/>
    <polygon class="a" points="80.3 95.7 92.7 95.7 99.9 85.5 116.3 85.5 116.3 80.5 97.3 80.5 90.1 90.7 80.3 90.7 80.3 95.7"/>
    <rect class="a" x="79.7" y="75.6" width="18.6" height="4.96"/>
    <rect class="a" x="97.4" y="68.5" width="5" height="13.04"/>
    <rect class="a" x="86.5" y="103.5" width="5" height="13.04"/>
    <rect class="b" x="52.8" y="106.6" width="5" height="13.04"/>
    <rect class="b" x="116.3" y="132.8" width="5" height="13.04"/>
    <rect class="b" x="67.3" y="84.6" width="5" height="13.04"/>
    <rect class="b" x="11" y="78.7" width="5" height="13.04"/>
    <rect class="a" x="80.7" y="116.5" width="5" height="13.04"/>
    <polygon class="a" points="259.1 155.4 264 155.4 264 179.5 255.6 188.3 252 184.9 259.1 177.5 259.1 155.4"/>
    <rect class="a" x="250" y="184.5" width="16.8" height="4.96"/>
    <rect class="a" x="149.5" y="234.5" width="34.2" height="4.96"/>
    <polygon class="a" points="226.1 205.5 213.8 205.5 206.6 215.7 172.4 215.7 172.4 220.6 209.2 220.6 216.4 210.5 226.1 210.5 226.1 205.5"/>
    <rect class="a" x="244.8" y="128" width="22.1" height="4.96"/>
    <polygon class="b" points="266.8 203.2 257.7 203.2 250.5 213.3 235.9 213.3 235.9 218.3 253.1 218.3 260.3 208.1 266.8 208.1 266.8 203.2"/>
    <polygon class="b" points="221.7 229.4 209.4 229.4 202.2 239.6 187.6 239.6 187.6 244.5 204.7 244.5 211.9 234.4 221.7 234.4 221.7 229.4"/>
    <polygon class="b" points="264.1 143.4 251.7 143.4 244.5 153.6 229.9 153.6 229.9 158.6 247.1 158.6 254.3 148.4 264.1 148.4 264.1 143.4"/>
    <polygon class="b" points="172.4 215.7 172.4 228 182.6 235.2 182.6 249.8 187.6 249.8 187.6 232.6 177.4 225.4 177.4 215.7 172.4 215.7"/>
    <polygon class="a" points="191.9 194.7 179.5 194.7 172.3 204.9 157.7 204.9 157.7 209.9 174.9 209.9 182.1 199.7 191.9 199.7 191.9 194.7"/>
    <polygon class="a" points="196.2 145.1 196.2 132.8 186 125.6 186 111 181.1 111 181.1 128.2 191.3 135.4 191.3 145.1 196.2 145.1"/>
    <polygon class="b" points="218.2 184.5 205.8 184.5 198.6 194.7 182.2 194.7 182.2 199.6 201.2 199.6 208.4 189.5 218.2 189.5 218.2 184.5"/>
    <polygon class="b" points="219.2 135.2 209.9 135.2 202.7 145.4 196.2 145.4 196.2 150.3 205.2 150.3 212.4 140.2 219.2 140.2 219.2 135.2"/>
    <polygon class="a" points="138.6 233.9 138.6 246.2 148.8 253.4 148.8 269.9 153.8 269.9 153.8 250.9 143.6 243.7 143.6 233.9 138.6 233.9"/>
    <polygon class="a" points="218.8 174.3 231.1 174.3 238.3 184.5 254.8 184.5 254.8 189.5 235.7 189.5 228.6 179.3 218.8 179.3 218.8 174.3"/>
    <rect class="a" x="218.2" y="189.5" width="18.6" height="4.96"/>
    <rect class="a" x="235.9" y="188.5" width="5" height="13.04"/>
    <rect class="a" x="225" y="153.5" width="5" height="13.04"/>
    <rect class="b" x="191.3" y="150.3" width="5" height="13.04"/>
    <rect class="b" x="254.8" y="124.2" width="5" height="13.04"/>
    <rect class="b" x="205.8" y="172.3" width="5" height="13.04"/>
    <rect class="b" x="149.5" y="178.3" width="5" height="13.04"/>
    <rect class="a" x="219.2" y="140.4" width="5" height="13.04"/>
  </g>
</svg>
