<?xml version="1.0" encoding="UTF-8" standalone="no"?>
<!-- Created with Inkscape (http://www.inkscape.org/) -->

<svg
   xmlns:dc="http://purl.org/dc/elements/1.1/"
   xmlns:cc="http://creativecommons.org/ns#"
   xmlns:rdf="http://www.w3.org/1999/02/22-rdf-syntax-ns#"
   xmlns:svg="http://www.w3.org/2000/svg"
   xmlns="http://www.w3.org/2000/svg"
   xmlns:sodipodi="http://sodipodi.sourceforge.net/DTD/sodipodi-0.dtd"
   xmlns:inkscape="http://www.inkscape.org/namespaces/inkscape"
   width="210mm"
   height="297mm"
   viewBox="0 0 210 297"
   version="1.1"
   id="svg6220"
   inkscape:version="0.92.5 (2060ec1f9f, 2020-04-08)"
   sodipodi:docname="logo.svg">
  <defs
     id="defs6214" />
  <sodipodi:namedview
     id="base"
     pagecolor="#ffffff"
     bordercolor="#666666"
     borderopacity="1.0"
     inkscape:pageopacity="0.0"
     inkscape:pageshadow="2"
     inkscape:zoom="0.35"
     inkscape:cx="400"
     inkscape:cy="560"
     inkscape:document-units="mm"
     inkscape:current-layer="layer1"
     showgrid="false"
     inkscape:window-width="1294"
     inkscape:window-height="704"
     inkscape:window-x="72"
     inkscape:window-y="27"
     inkscape:window-maximized="1" />
  <metadata
     id="metadata6217">
    <rdf:RDF>
      <cc:Work
         rdf:about="">
        <dc:format>image/svg+xml</dc:format>
        <dc:type
           rdf:resource="http://purl.org/dc/dcmitype/StillImage" />
        <dc:title></dc:title>
      </cc:Work>
    </rdf:RDF>
  </metadata>
  <g
     inkscape:label="1. réteg"
     inkscape:groupmode="layer"
     id="layer1">
    <g
       id="g5946"
       transform="matrix(0.35277777,0,0,-0.35277777,-176.7969,2600.741)">
      <g
         transform="translate(777.2275,7232.9492)"
         id="g5944">
        <path
           inkscape:connector-curvature="0"
           id="path5942"
           style="fill:#2f3e49;fill-opacity:1;fill-rule:nonzero;stroke:none"
           d="M 0,0 C 0,-75.663 -61.341,-137.001 -137.005,-137.001 -212.666,-137.001 -274,-75.663 -274,0 c 0,75.661 61.334,137.001 136.995,137.001 C -61.341,137.001 0,75.661 0,0" />
      </g>
    </g>
    <g
       id="g6116"
       transform="matrix(0.35277777,0,0,-0.35277777,-176.7969,2600.741)">
      <g
         transform="translate(567.1538,7182.2783)"
         id="g5950">
        <path
           inkscape:connector-curvature="0"
           id="path5948"
           style="fill:#f96400;fill-opacity:1;fill-rule:nonzero;stroke:none"
           d="M 0,0 H -4.96 V 19.181 L 3.469,28.031 7.061,24.61 0,17.196 Z" />
      </g>
      <path
         inkscape:connector-curvature="0"
         id="path5952"
         style="fill:#f96400;fill-opacity:1;fill-rule:nonzero;stroke:none"
         d="m 564.583,7197.784 h -12.654 v 4.96 h 12.654 z" />
      <g
         transform="translate(583.4043,7206.2769)"
         id="g5956">
        <path
           inkscape:connector-curvature="0"
           id="path5954"
           style="fill:#f99d00;fill-opacity:1;fill-rule:nonzero;stroke:none"
           d="m 0,0 h -12.331 l -7.193,10.178 h -16.462 v 4.96 h 19.03 L -9.762,4.96 H 0 Z" />
      </g>
      <g
         transform="translate(586.9971,7343.7119)"
         id="g5960">
        <path
           inkscape:connector-curvature="0"
           id="path5958"
           style="fill:#73c8de;fill-opacity:1;fill-rule:nonzero;stroke:none"
           d="M 0,0 2.427,1.022 11.136,-3.98 8.032,3.385 10.63,4.479 15.671,-7.483 13.433,-8.427 4.434,-3.263 7.639,-10.868 5.042,-11.963 Z" />
      </g>
      <g
         transform="translate(601.9805,7349.5713)"
         id="g5964">
        <path
           inkscape:connector-curvature="0"
           id="path5962"
           style="fill:#73c8de;fill-opacity:1;fill-rule:nonzero;stroke:none"
           d="M 0,0 2.728,0.851 6.595,-11.55 3.867,-12.401 Z" />
      </g>
      <g
         transform="translate(609.8359,7345.231)"
         id="g5968">
        <path
           inkscape:connector-curvature="0"
           id="path5966"
           style="fill:#73c8de;fill-opacity:1;fill-rule:nonzero;stroke:none"
           d="m 0,0 -0.008,0.036 c -0.771,3.61 1.319,7.15 5.219,7.983 2.395,0.511 3.999,0.019 5.426,-0.89 L 9.297,4.699 C 8.127,5.378 7.014,5.71 5.744,5.438 3.603,4.981 2.44,2.874 2.905,0.697 L 2.913,0.66 c 0.465,-2.177 2.359,-3.669 4.536,-3.204 1.451,0.31 2.216,1.08 3.02,2.201 L 12.631,-1.76 C 11.623,-3.436 10.358,-4.617 7.909,-5.14 4.171,-5.938 0.779,-3.646 0,0" />
      </g>
      <g
         transform="translate(623.979,7354.6074)"
         id="g5972">
        <path
           inkscape:connector-curvature="0"
           id="path5970"
           style="fill:#73c8de;fill-opacity:1;fill-rule:nonzero;stroke:none"
           d="M 0,0 9.756,0.895 9.988,-1.637 3.059,-2.272 3.3,-4.896 l 6.097,0.559 0.232,-2.532 -6.097,-0.559 0.249,-2.716 7.021,0.644 0.233,-2.532 -9.849,-0.903 z" />
      </g>
      <g
         transform="translate(637.7949,7355.5977)"
         id="g5976">
        <path
           inkscape:connector-curvature="0"
           id="path5974"
           style="fill:#73c8de;fill-opacity:1;fill-rule:nonzero;stroke:none"
           d="m 0,0 2.857,-0.047 -0.17,-10.391 6.475,-0.106 -0.043,-2.598 -9.332,0.154 z" />
      </g>
      <g
         transform="translate(657.2148,7346.709)"
         id="g5980">
        <path
           inkscape:connector-curvature="0"
           id="path5978"
           style="fill:#73c8de;fill-opacity:1;fill-rule:nonzero;stroke:none"
           d="M 0,0 -1.143,4.406 -3.42,0.465 Z m -1.948,7.98 2.611,-0.355 3.752,-13.713 -2.961,0.402 -0.783,3.047 -5.443,0.741 -1.57,-2.727 -2.887,0.394 z" />
      </g>
      <g
         transform="translate(666.9844,7352.6772)"
         id="g5984">
        <path
           inkscape:connector-curvature="0"
           id="path5982"
           style="fill:#73c8de;fill-opacity:1;fill-rule:nonzero;stroke:none"
           d="m 0,0 2.539,-0.7 3.741,-9.324 2.125,7.708 2.718,-0.75 -3.45,-12.518 -2.343,0.646 -3.869,9.628 -2.192,-7.958 -2.719,0.749 z" />
      </g>
      <g
         transform="translate(683.2285,7336.4658)"
         id="g5988">
        <path
           inkscape:connector-curvature="0"
           id="path5986"
           style="fill:#73c8de;fill-opacity:1;fill-rule:nonzero;stroke:none"
           d="M 0,0 C 2.152,-0.915 4.221,-0.081 5.121,2.036 L 5.136,2.07 c 0.9,2.117 0.081,4.221 -2.071,5.136 L 1.033,8.07 -2.031,0.864 Z M -0.586,11.562 4.075,9.579 C 7.832,7.981 9.33,4.299 7.899,0.935 L 7.885,0.901 C 6.454,-2.463 2.747,-3.971 -1.009,-2.373 l -4.662,1.982 z" />
      </g>
      <g
         transform="translate(578.0454,7141.9443)"
         id="g5992">
        <path
           inkscape:connector-curvature="0"
           id="path5990"
           style="fill:#73c8de;fill-opacity:1;fill-rule:nonzero;stroke:none"
           d="m 0,0 2.708,-1.619 -1.779,-9.596 7.61,6.111 2.644,-1.581 -11.221,-8.536 -2.167,1.295 z" />
      </g>
      <g
         transform="translate(592.8906,7125.3428)"
         id="g5996">
        <path
           inkscape:connector-curvature="0"
           id="path5994"
           style="fill:#73c8de;fill-opacity:1;fill-rule:nonzero;stroke:none"
           d="M 0,0 0.171,4.549 -3.142,1.428 Z m 0.426,8.203 2.398,-1.09 -0.343,-14.211 -2.72,1.236 0.124,3.143 -5,2.272 -2.286,-2.161 -2.652,1.205 z" />
      </g>
      <g
         transform="translate(602.397,7129.5107)"
         id="g6000">
        <path
           inkscape:connector-curvature="0"
           id="path5998"
           style="fill:#73c8de;fill-opacity:1;fill-rule:nonzero;stroke:none"
           d="m 0,0 2.52,-0.765 3.499,-9.415 2.321,7.649 2.698,-0.82 -3.77,-12.421 -2.325,0.706 -3.619,9.722 -2.397,-7.897 -2.698,0.819 z" />
      </g>
      <g
         transform="translate(616.3076,7125.5684)"
         id="g6004">
        <path
           inkscape:connector-curvature="0"
           id="path6002"
           style="fill:#73c8de;fill-opacity:1;fill-rule:nonzero;stroke:none"
           d="m 0,0 2.813,-0.503 -1.829,-10.227 6.375,-1.14 -0.458,-2.558 -9.187,1.643 z" />
      </g>
      <g
         transform="translate(627.7559,7123.7617)"
         id="g6008">
        <path
           inkscape:connector-curvature="0"
           id="path6006"
           style="fill:#73c8de;fill-opacity:1;fill-rule:nonzero;stroke:none"
           d="M 0,0 2.843,-0.275 1.594,-13.199 -1.25,-12.924 Z" />
      </g>
      <g
         transform="translate(633.8076,7123.1973)"
         id="g6012">
        <path
           inkscape:connector-curvature="0"
           id="path6010"
           style="fill:#73c8de;fill-opacity:1;fill-rule:nonzero;stroke:none"
           d="M 0,0 9.89,-0.163 9.847,-2.761 2.815,-2.645 2.77,-5.409 8.967,-5.512 8.924,-8.109 l -6.197,0.102 -0.083,-5.028 -2.857,0.047 z" />
      </g>
      <g
         transform="translate(645.7607,7123.1592)"
         id="g6016">
        <path
           inkscape:connector-curvature="0"
           id="path6014"
           style="fill:#73c8de;fill-opacity:1;fill-rule:nonzero;stroke:none"
           d="m 0,0 9.748,0.919 0.238,-2.53 -6.923,-0.653 0.247,-2.621 6.092,0.573 0.239,-2.529 -6.093,-0.573 0.256,-2.715 7.015,0.661 0.239,-2.529 -9.841,-0.927 z" />
      </g>
      <g
         transform="translate(667.123,7123.7773)"
         id="g6020">
        <path
           inkscape:connector-curvature="0"
           id="path6018"
           style="fill:#73c8de;fill-opacity:1;fill-rule:nonzero;stroke:none"
           d="M 0,0 -3.822,-1.001 -4.49,1.547 5.918,4.272 6.585,1.725 2.763,0.724 5.386,-9.289 2.622,-10.013 Z" />
      </g>
      <g
         transform="translate(682.5986,7124.8965)"
         id="g6024">
        <path
           inkscape:connector-curvature="0"
           id="path6022"
           style="fill:#73c8de;fill-opacity:1;fill-rule:nonzero;stroke:none"
           d="M 0,0 C 1.297,0.505 1.771,1.485 1.374,2.506 L 1.36,2.54 C 0.916,3.682 -0.107,3.959 -1.404,3.455 L -4.05,2.425 -2.697,-1.05 Z m -7.647,3.792 5.532,2.153 C -0.576,6.544 0.785,6.576 1.89,6.091 2.826,5.679 3.56,4.869 4.004,3.729 L 4.018,3.693 C 4.777,1.74 4.201,0.103 2.885,-1.067 l 4.637,-3.171 -3.111,-1.212 -4.1,2.863 -2.092,-0.814 1.507,-3.872 -2.663,-1.037 z" />
      </g>
      <g
         transform="translate(687.3887,7133.8662)"
         id="g6028">
        <path
           inkscape:connector-curvature="0"
           id="path6026"
           style="fill:#73c8de;fill-opacity:1;fill-rule:nonzero;stroke:none"
           d="M 0,0 2.56,1.271 8.338,-10.36 5.778,-11.632 Z" />
      </g>
      <g
         transform="translate(700.6006,7133.6221)"
         id="g6032">
        <path
           inkscape:connector-curvature="0"
           id="path6030"
           style="fill:#73c8de;fill-opacity:1;fill-rule:nonzero;stroke:none"
           d="M 0,0 C 1.221,0.741 1.491,1.903 0.914,2.854 L 0.895,2.887 C 0.23,3.98 -0.887,4.104 -2.107,3.363 l -1.887,-1.145 2.06,-3.393 z M -7.774,2.938 -3.24,5.692 C -0.593,7.301 1.962,6.703 3.339,4.437 L 3.358,4.404 C 4.918,1.836 3.729,-0.709 1.24,-2.221 l -1.855,-1.126 2.022,-3.329 -2.441,-1.483 z" />
      </g>
      <g
         transform="translate(615.7598,7283.4033)"
         id="g6036">
        <path
           inkscape:connector-curvature="0"
           id="path6034"
           style="fill:#41ca75;fill-opacity:1;fill-rule:nonzero;stroke:none"
           d="m 0,0 c -5.002,0 -8.577,0.682 -8.778,0.721 l -5.326,0.821 0.758,4.902 5.421,-0.838 c 0.33,-0.062 23.948,-4.42 32.843,10.842 11.11,19.063 31.87,15.89 37.775,12.65 L 60.307,24.75 C 57.386,26.352 39.239,31.17 29.203,13.95 24.742,6.296 16.701,1.588 5.948,0.336 3.839,0.091 1.824,0 0,0" />
      </g>
      <g
         transform="translate(608.3198,7284.3931)"
         id="g6040">
        <path
           inkscape:connector-curvature="0"
           id="path6038"
           style="fill:#41ca75;fill-opacity:1;fill-rule:nonzero;stroke:none"
           d="m 0,0 c -4.821,0 -8.146,0.873 -8.24,0.898 l 1.309,4.784 C -6.002,5.432 15.918,-0.2 26.601,22.02 39.126,48.075 64.77,40.612 65.029,40.533 L 63.583,35.788 C 62.704,36.051 41.725,42.032 31.072,19.87 22.956,2.99 8.92,0 0,0" />
      </g>
      <path
         inkscape:connector-curvature="0"
         id="path6042"
         style="fill:#546076;fill-opacity:1;fill-rule:nonzero;stroke:none"
         d="m 598.905,7234.642 h -66.368 v -4.96 h 66.368 z" />
      <path
         inkscape:connector-curvature="0"
         id="path6044"
         style="fill:#546076;fill-opacity:1;fill-rule:nonzero;stroke:none"
         d="m 682.635,7229.682 h 64.019 v 4.96 h -64.019 z" />
      <path
         inkscape:connector-curvature="0"
         id="path6046"
         style="fill:#f96400;fill-opacity:1;fill-rule:nonzero;stroke:none"
         d="m 560.127,7221.413 h -4.96 v 13.042 h 4.96 z" />
      <g
         transform="translate(608.7705,7299.1401)"
         id="g6050">
        <path
           inkscape:connector-curvature="0"
           id="path6048"
           style="fill:#4a668c;fill-opacity:1;fill-rule:nonzero;stroke:none"
           d="m 0,0 c -4.032,0 -10.37,2.425 -11.103,2.71 l 1.802,4.622 c 2.491,-0.97 7.275,-2.468 9.494,-2.368 2.844,0.131 8.76,0.404 13.479,6.211 l 3.85,-3.128 C 11.4,0.515 3.707,0.161 0.422,0.009 0.285,0.003 0.143,0 0,0" />
      </g>
      <g
         transform="translate(682.3018,7288.188)"
         id="g6054">
        <path
           inkscape:connector-curvature="0"
           id="path6052"
           style="fill:#4a668c;fill-opacity:1;fill-rule:nonzero;stroke:none"
           d="m 0,0 c -2.012,1.761 -5.995,4.801 -8.118,5.461 -2.718,0.847 -8.374,2.606 -14.79,-1.243 l -2.553,4.253 c 8.319,4.993 15.675,2.704 18.816,1.727 3.818,-1.188 9.3,-5.93 9.914,-6.467 z" />
      </g>
      <path
         inkscape:connector-curvature="0"
         id="path6056"
         style="fill:#73c8de;fill-opacity:1;fill-rule:nonzero;stroke:none"
         d="m 727.393,7229.681 h -14.604 v 4.96 h 14.604 z" />
      <path
         inkscape:connector-curvature="0"
         id="path6058"
         style="fill:#73c8de;fill-opacity:1;fill-rule:nonzero;stroke:none"
         d="m 727.393,7209.84 h -14.604 v 4.96 h 14.604 z" />
      <path
         inkscape:connector-curvature="0"
         id="path6060"
         style="fill:#73c8de;fill-opacity:1;fill-rule:nonzero;stroke:none"
         d="m 727.393,7199.914 h -14.604 v 4.96 h 14.604 z" />
      <path
         inkscape:connector-curvature="0"
         id="path6062"
         style="fill:#73c8de;fill-opacity:1;fill-rule:nonzero;stroke:none"
         d="m 741.513,7219.718 h -13.215 v 4.96 h 13.215 z" />
      <path
         inkscape:connector-curvature="0"
         id="path6064"
         style="fill:#73c8de;fill-opacity:1;fill-rule:nonzero;stroke:none"
         d="m 741.513,7189.955 h -13.215 v 4.96 h 13.215 z" />
      <path
         inkscape:connector-curvature="0"
         id="path6066"
         style="fill:#73c8de;fill-opacity:1;fill-rule:nonzero;stroke:none"
         d="m 712.788,7204.879 h -13.215 v 4.96 h 13.215 z" />
      <path
         inkscape:connector-curvature="0"
         id="path6068"
         style="fill:#73c8de;fill-opacity:1;fill-rule:nonzero;stroke:none"
         d="M 719.396,7219.718 H 706.18 v 4.96 h 13.216 z" />
      <path
         inkscape:connector-curvature="0"
         id="path6070"
         style="fill:#b2bdc6;fill-opacity:1;fill-rule:nonzero;stroke:none"
         d="m 560.127,7243.002 h -4.96 v 10.159 h 4.96 z" />
      <path
         inkscape:connector-curvature="0"
         id="path6072"
         style="fill:#73c8de;fill-opacity:1;fill-rule:nonzero;stroke:none"
         d="m 565.638,7253.336 h -4.96 v 10.158 h 4.96 z" />
      <path
         inkscape:connector-curvature="0"
         id="path6074"
         style="fill:#73c8de;fill-opacity:1;fill-rule:nonzero;stroke:none"
         d="m 555.097,7253.336 h -4.96 v 10.158 h 4.96 z" />
      <path
         inkscape:connector-curvature="0"
         id="path6076"
         style="fill:#546076;fill-opacity:1;fill-rule:nonzero;stroke:none"
         d="m 555.097,7268.118 h -4.96 v 10.159 h 4.96 z" />
      <g
         transform="translate(719.3955,7265.5786)"
         id="g6080">
        <path
           inkscape:connector-curvature="0"
           id="path6078"
           style="fill:#f96400;fill-opacity:1;fill-rule:nonzero;stroke:none"
           d="m 0,0 c -4.446,0 -8.063,-3.618 -8.063,-8.065 0,-4.447 3.617,-8.065 8.063,-8.065 4.447,0 8.065,3.618 8.065,8.065 C 8.065,-3.618 4.447,0 0,0 m 0,-21.09 c -7.181,0 -13.023,5.843 -13.023,13.025 0,7.182 5.842,13.025 13.023,13.025 7.183,0 13.026,-5.843 13.026,-13.025 C 13.026,-15.247 7.183,-21.09 0,-21.09" />
      </g>
      <path
         inkscape:connector-curvature="0"
         id="path6082"
         style="fill:#b2bdc6;fill-opacity:1;fill-rule:nonzero;stroke:none"
         d="m 658.754,7268.74 h -51.457 v -4.96 h 51.457 z" />
      <g
         transform="translate(601.7627,7223.5044)"
         id="g6086">
        <path
           inkscape:connector-curvature="0"
           id="path6084"
           style="fill:#b2bdc6;fill-opacity:1;fill-rule:nonzero;stroke:none"
           d="m 0,0 v 15.675 h 49.415 4.961 24.221 V 0 Z M 27.639,31.112 H 49.415 V 20.635 H 0.627 l 2.381,10.477 z m 38.306,0 9.526,-10.477 H 54.376 v 10.477 z m -2.727,-45.608 c -2.066,0 -3.746,1.682 -3.746,3.748 0,2.067 1.68,3.748 3.746,3.748 2.067,0 3.748,-1.681 3.748,-3.748 0,-2.066 -1.681,-3.748 -3.748,-3.748 m -49.279,0 c -2.066,0 -3.748,1.682 -3.748,3.748 0,2.067 1.682,3.748 3.748,3.748 2.067,0 3.748,-1.681 3.748,-3.748 0,-2.066 -1.681,-3.748 -3.748,-3.748 M 83.558,19.114 68.139,36.072 H 54.376 27.639 -0.951 L -4.96,18.433 V -4.96 H 7.451 c -1.375,-1.54 -2.22,-3.565 -2.22,-5.788 0,-4.801 3.907,-8.708 8.708,-8.708 4.802,0 8.708,3.907 8.708,8.708 0,2.223 -0.844,4.248 -2.22,5.788 H 56.73 c -1.375,-1.54 -2.219,-3.565 -2.219,-5.788 0,-4.801 3.906,-8.708 8.707,-8.708 4.802,0 8.709,3.907 8.709,8.708 0,2.223 -0.845,4.248 -2.221,5.788 h 13.852 z" />
      </g>
      <path
         inkscape:connector-curvature="0"
         id="path6088"
         style="fill:#b2bdc6;fill-opacity:1;fill-rule:nonzero;stroke:none"
         d="m 587.709,7227.251 h 4.96 v 14.408 h -4.96 z" />
      <path
         inkscape:connector-curvature="0"
         id="path6090"
         style="fill:#546076;fill-opacity:1;fill-rule:nonzero;stroke:none"
         d="m 565.638,7268.118 h -4.96 v 10.159 h 4.96 z" />
      <g
         transform="translate(659.1436,7158.0234)"
         id="g6094">
        <path
           inkscape:connector-curvature="0"
           id="path6092"
           style="fill:#546076;fill-opacity:1;fill-rule:nonzero;stroke:none"
           d="m 0,0 c -5.113,5.113 -11.912,7.93 -19.145,7.93 -7.23,0 -14.029,-2.817 -19.144,-7.93 l -15.606,15.606 c 4.688,4.686 10.159,8.319 16.262,10.795 5.891,2.39 12.109,3.599 18.488,3.599 6.377,0 12.6,-1.209 18.489,-3.599 6.103,-2.476 11.574,-6.109 16.263,-10.795 z" />
      </g>
      <g
         transform="translate(625.5264,7172.0571)"
         id="g6098">
        <path
           inkscape:connector-curvature="0"
           id="path6096"
           style="fill:#f99d00;fill-opacity:1;fill-rule:nonzero;stroke:none"
           d="M 0,0 C 0.47,0.202 0.668,0.5 0.527,0.83 L 0.52,0.846 C 0.393,1.15 0.066,1.249 -0.455,1.026 l -1.186,-0.502 0.442,-1.033 z m -1.125,2.028 c 0.473,0.2 0.668,0.472 0.527,0.801 L -0.605,2.845 C -0.732,3.148 -1.049,3.222 -1.512,3.026 L -2.521,2.598 -2.104,1.613 Z m -3.439,1.174 2.873,1.223 C -0.986,4.723 -0.414,4.758 0.054,4.568 0.371,4.44 0.635,4.204 0.799,3.818 L 0.802,3.802 C 1.078,3.154 0.875,2.613 0.47,2.186 1.246,2.25 1.842,2.049 2.164,1.29 L 2.172,1.272 C 2.578,0.312 2.045,-0.606 0.707,-1.172 l -2.891,-1.23 z" />
      </g>
      <g
         transform="translate(651.6768,7172.5127)"
         id="g6102">
        <path
           inkscape:connector-curvature="0"
           id="path6100"
           style="fill:#f99d00;fill-opacity:1;fill-rule:nonzero;stroke:none"
           d="M 0,0 1.273,0.72 C 1.668,0.06 2.207,-0.409 2.865,-0.659 3.289,-0.816 3.572,-0.756 3.664,-0.512 L 3.67,-0.496 C 3.758,-0.26 3.621,-0.058 2.914,0.411 1.805,1.144 0.998,1.836 1.437,3.011 L 1.442,3.026 C 1.842,4.084 2.967,4.535 4.336,4.021 5.303,3.657 5.963,3.113 6.396,2.385 L 5.187,1.565 C 4.805,2.127 4.305,2.536 3.801,2.725 3.42,2.87 3.172,2.776 3.094,2.573 L 3.09,2.557 C 2.99,2.295 3.143,2.108 3.865,1.633 5.068,0.856 5.725,0.127 5.324,-0.94 L 5.316,-0.956 C 4.883,-2.122 3.701,-2.467 2.316,-1.947 1.309,-1.568 0.465,-0.89 0,0" />
      </g>
      <g
         transform="translate(639.1572,7179.6255)"
         id="g6106">
        <path
           inkscape:connector-curvature="0"
           id="path6104"
           style="fill:#f99d00;fill-opacity:1;fill-rule:nonzero;stroke:none"
           d="M 0,0 H -1.829 V 1.478 H 3.514 V 0 H 1.686 V -8.162 H 0 Z" />
      </g>
      <g
         transform="translate(646.8145,7174.1606)"
         id="g6110">
        <path
           inkscape:connector-curvature="0"
           id="path6108"
           style="fill:#f99d00;fill-opacity:1;fill-rule:nonzero;stroke:none"
           d="M 0,0 -1.089,1.941 0.853,3.033 1.944,1.092 Z" />
      </g>
      <g
         transform="translate(632.9873,7174.1606)"
         id="g6114">
        <path
           inkscape:connector-curvature="0"
           id="path6112"
           style="fill:#f99d00;fill-opacity:1;fill-rule:nonzero;stroke:none"
           d="M 0,0 1.091,1.941 -0.852,3.033 -1.941,1.092 Z" />
      </g>
    </g>
  </g>
</svg>
