<svg xmlns="http://www.w3.org/2000/svg" viewBox="0 0 133 118"><defs><style>.a{fill:#73c8de;}.b{fill:#f96400;}</style></defs><rect class="a" x="62.6" y="42.5" width="70.5" height="7"/><rect class="a" x="19.3" y="52.6" width="21.4" height="7.27"/><rect class="a" x="19.3" y="81.6" width="21.4" height="7.27"/><rect class="a" x="19.3" y="96.2" width="21.4" height="7.27"/><rect class="a" x="42" y="67.2" width="19.4" height="7.27"/><rect class="a" x="42" y="110.8" width="19.4" height="7.27"/><rect class="a" x="-0.1" y="88.9" width="19.4" height="7.27"/><rect class="a" x="9.6" y="67.2" width="19.4" height="7.27"/><path class="b" d="M29,38.1A19.1,19.1,0,1,1,48.1,19,19.1,19.1,0,0,1,29,38.1ZM29,7.2A11.8,11.8,0,1,0,40.8,19,11.8,11.8,0,0,0,29,7.2Z"/></svg>