<svg xmlns="http://www.w3.org/2000/svg" viewBox="0 0 70 30"><defs><style>.a{fill:#73c8de;}.b{fill:#2f3e49;}</style></defs><path class="a" d="M54.1,30a27,27,0,0,0-38.2,0L.2,14.4A49.4,49.4,0,0,1,16.5,3.6a49.3,49.3,0,0,1,37,0A49.4,49.4,0,0,1,69.8,14.4Z"/><path class="b" d="M16,12.8l2.8-1.3a2.3,2.3,0,0,1,1.8-.1,1.2,1.2,0,0,1,.7.7h0a1.4,1.4,0,0,1-.3,1.6,1.4,1.4,0,0,1,1.7.9h0c.4,1-.1,1.9-1.5,2.4l-2.9,1.3Zm3.4,1.1c.5-.2.7-.4.5-.8h0c-.1-.3-.4-.4-.9-.2l-1,.5.4,1ZM20.5,16q.8-.3.6-.9H21c-.1-.3-.4-.4-.9-.2l-1.2.5.4,1.1Z"/><path class="b" d="M46.7,15.5l1.3-.7a2.9,2.9,0,0,0,1.5,1.4c.5.1.7.1.8-.2h0c.1-.2,0-.4-.7-.9s-1.9-1.4-1.5-2.6h0c.4-1.1,1.5-1.5,2.9-1a4.4,4.4,0,0,1,2.1,1.6l-1.2.8a3.6,3.6,0,0,0-1.4-1.1c-.4-.2-.7-.1-.7.1h0c-.1.2,0,.4.7.9s1.9,1.5,1.5,2.6h0c-.4,1.1-1.6,1.5-3,1A4.2,4.2,0,0,1,46.7,15.5Z"/><path class="b" d="M34.2,8.4H32.3V6.9h5.4V8.4H35.8v8.2H34.2Z"/><rect class="b" x="41.1" y="11.2" width="2.2" height="2.23" transform="translate(-0.6 22.2) rotate(-29.3)"/><rect class="b" x="26.4" y="11.2" width="2.2" height="2.23" transform="translate(3.3 30.3) rotate(-60.7)"/></svg>