<svg xmlns="http://www.w3.org/2000/svg" viewBox="0 0 277 145">
  <defs>
    <style>
      .a {
        fill: #4a668c;
      }

      .b {
        fill: #41ca75;
      }
    </style>
  </defs>
  <g>
    <path class="a" d="M213.1,97.2c4,0,10.3-2.5,11.1-2.7l-1.8-4.7c-2.5,1-7.3,2.5-9.5,2.4s-8.8-.4-13.5-6.2l-3.8,3.1c6.1,7.6,13.8,7.9,17.1,8.1Z"/>
    <path class="a" d="M139.5,108.1c2.1-1.7,6-4.8,8.2-5.4a16.9,16.9,0,0,1,14.8,1.2l2.5-4.2a21.7,21.7,0,0,0-18.8-1.8c-3.8,1.2-9.3,6-9.9,6.5Z"/>
    <g>
      <path class="b" d="M206.1,112.9a57.1,57.1,0,0,0,8.8-.7l5.3-.8-.8-4.9-5.4.8c-.3.1-23.9,4.4-32.8-10.8-11.1-19.1-31.9-15.9-37.8-12.7l2.4,4.4c2.9-1.6,21-6.5,31.1,10.8,4.4,7.6,12.5,12.3,23.2,13.6Z"/>
      <path class="b" d="M207.6,74.6a42.5,42.5,0,0,1-7.6-4.4l-4.4-3,2.7-4.1,4.6,3.1c.2.2,19.7,14.2,34.3,4.2,18.2-12.5,35.6-.7,39.6,4.7L272.7,78c-1.9-2.7-16.3-14.8-32.7-3.5-7.3,5-16.6,5.8-26.8,2.4A59.2,59.2,0,0,1,207.6,74.6Z"/>
      <path class="b" d="M213.5,111.9a37.9,37.9,0,0,0,8.3-.9l-1.3-4.8c-1,.3-22.9,5.9-33.6-16.3-12.5-26.1-38.1-18.6-38.4-18.5l1.4,4.7c.9-.2,21.9-6.2,32.6,15.9C190.6,108.9,204.6,111.9,213.5,111.9Z"/>
      <path class="b" d="M134.3,78a43.7,43.7,0,0,0,8.7-.7l5.4-.8-.8-4.9-5.4.8c-.3.1-24,4.4-32.9-10.8C98.2,42.5,77.5,45.7,71.6,48.9L74,53.3c2.9-1.6,21-6.4,31.1,10.8,4.4,7.6,12.5,12.3,23.2,13.6Z"/>
      <path class="a" d="M132.4,92.4a41.9,41.9,0,0,0,8.4-2.5l5.1-1.8-1.7-4.7-5.1,1.9c-.4.1-22.7,9-34.4-4.2C90.1,64.6,70.4,71.7,65.2,76l3.2,3.8C71,77.7,87.8,69.4,101,84.4c5.9,6.6,14.7,9.7,25.5,8.8Z"/>
      <path class="a" d="M141.7,77a30.6,30.6,0,0,0,8.2-.9l-1.3-4.7c-.9.2-22.8,5.8-33.5-16.4C102.6,29,76.9,36.4,76.7,36.5l1.4,4.8C79,41,100,35,110.6,57.2,118.7,74.1,132.8,77,141.7,77Z"/>
    </g>
    <g>
      <path class="b" d="M63.5,43a40.9,40.9,0,0,0,8.8-.8l5.3-.8-.7-4.9-5.5.8c-.3.1-23.9,4.5-32.8-10.8C27.5,7.4,6.7,10.6.8,13.9l2.4,4.3C6.1,16.6,24.3,11.8,34.3,29c4.5,7.7,12.5,12.4,23.3,13.6A41.8,41.8,0,0,0,63.5,43Z"/>
      <path class="b" d="M70.9,42a36.8,36.8,0,0,0,8.3-.9l-1.3-4.8c-.9.2-22.9,5.9-33.6-16.4C31.8-6.1,6.2,1.4,5.9,1.4L7.4,6.2c.8-.3,21.8-6.3,32.5,15.9C48,39,62,42,70.9,42Z"/>
      <path class="b" d="M5,1.6.2,2.4v5H.5l5.3-.9Z"/>
      <polygon class="b" points="0.2 19.3 3.3 18.1 1.6 13.5 0.2 14 0.2 19.3"/>
      <path class="b" d="M.2,7.1a34,34,0,0,0,7.2-.9L6.1,1.4a25.3,25.3,0,0,1-5.9.8Z"/>
    </g>
    <g>
      <path class="b" d="M70.8,49.3l-5,2.3c-.3.2-21.8,10.9-34.5-1.4C20.6,40,8.5,40.5.2,43.4v5.4c6.5-2.8,17.5-4.7,27.6,5,6.4,6.1,15.4,8.5,26.1,6.7a41.6,41.6,0,0,0,5.8-1.3A51.1,51.1,0,0,0,68,56.1l4.9-2.2Z"/>
      <path class="a" d="M71.7,48.8c-.8.5-20.3,12-36.7-6.5C22.5,28.2,8.5,29.4.2,31.9v5.2c6.7-2.5,19.5-4.6,31.1,8.5S58,58.7,66.6,56.2a36.7,36.7,0,0,0,7.7-3.1Z"/>
    </g>
    <g>
      <path class="b" d="M137.7,139.2a45.4,45.4,0,0,0,8.3-3.1l4.9-2.2-2.1-4.5-5,2.3c-.3.1-21.8,10.8-34.5-1.4-15.9-15.3-35-6.6-39.8-1.8L73,132c2.3-2.4,18.5-12,32.8,1.8,6.4,6.2,15.4,8.5,26.1,6.8C134,140.2,136,139.7,137.7,139.2Z"/>
      <path class="b" d="M144.6,136.3a33.7,33.7,0,0,0,7.7-3.2l-2.6-4.2c-.8.5-20.3,11.9-36.7-6.5-19.2-21.7-41.8-7.4-42-7.3l2.7,4.2c.7-.5,19.3-12,35.6,6.4C121.7,139.7,136,138.7,144.6,136.3Z"/>
      <path class="b" d="M70.2,115.5l-5,2.3c-.3.2-21.8,10.9-34.6-1.4-10.4-10-22.1-9.7-30.4-7v5.3c6.6-2.6,17.2-4.1,27,5.3,6.4,6.1,15.4,8.5,26.1,6.7a41.6,41.6,0,0,0,5.8-1.3,56,56,0,0,0,8.3-3.1l4.8-2.2Z"/>
      <path class="a" d="M70.2,127.9l-4.5,3.2c-.2.2-19.3,14.9-34.2,5.3-12.2-7.8-23.7-5.1-31.3-.8v5.9c5.7-4.1,16.4-8.7,28.7-.9,7.4,4.8,16.7,5.3,26.9,1.5a45.8,45.8,0,0,0,5.4-2.4,43.5,43.5,0,0,0,7.5-4.7l4.4-3.1Z"/>
      <path class="b" d="M71.1,115c-.8.5-20.4,12-36.7-6.5C22.2,94.8,8.6,95.5.2,97.9V103c6.8-2.3,19.2-3.9,30.5,8.8S57.4,124.9,66,122.4a39.9,39.9,0,0,0,7.7-3.1Z"/>
    </g>
    <g>
      <path class="b" d="M64.6,76.5l-4.6,3c-.3.2-20,14-34.4,3.9C16.5,76.9,7.4,76.7.2,78.8v5.1c6-2.1,14-2.5,22.5,3.5s16.6,6.1,26.9,2.7a39.4,39.4,0,0,0,5.5-2.2,38.1,38.1,0,0,0,7.7-4.3l4.5-2.9Z"/>
      <path class="b" d="M65.4,75.9c-.8.6-18.3,14.9-37.3-.9C17.8,66.4,7.9,65.6.2,67.2v5c6.6-1.6,15.4-1.1,24.7,6.6,14.4,12,28.4,8.9,36.6,5.1a37.4,37.4,0,0,0,7.1-4.2Z"/>
    </g>
  </g>
</svg>
