<svg xmlns="http://www.w3.org/2000/svg" viewBox="0 0 205 63">
  <defs>
    <style>
      .a {
        fill: #41ca75;
      }

      .b {
        fill: #4a668c;
      }
    </style>
  </defs>
  <g>
    <path class="a" d="M58.7,3.4a56.2,56.2,0,0,0-8.3,2.9L45.5,8.5l2,4.5,5-2.2C52.8,10.7,74.5.5,87,13c15.6,15.6,34.8,7.2,39.7,2.6L123.3,12c-2.4,2.3-18.7,11.6-32.8-2.5C84.2,3.2,75.3.7,64.6,2.2A47.2,47.2,0,0,0,58.7,3.4Z"/>
    <path class="a" d="M66.9,40.8a44.7,44.7,0,0,1,8.5,2.3l5.1,1.8-1.6,4.7-5.2-1.8c-.3-.2-22.7-8.8-34.3,4.6C25,69.1,5.2,62.1,0,57.9L3.1,54c2.6,2.1,19.6,10.2,32.6-4.9C41.5,42.4,50.2,39.3,61,40Z"/>
    <path class="a" d="M51.8,6.2a37.2,37.2,0,0,0-7.7,3l2.4,4.3C47.4,13,67.1,2,83.1,20.8c18.7,22,41.6,8.3,41.8,8.1l-2.6-4.2c-.7.5-19.5,11.6-35.4-7.1C74.7,3.3,60.4,4,51.8,6.2Z"/>
    <path class="a" d="M137,18.9a45.3,45.3,0,0,0-8.3,2.9L123.8,24l1.9,4.5,5.1-2.2c.3-.1,22-10.3,34.5,2.2,15.6,15.6,34.8,7.2,39.7,2.6l-3.4-3.6c-2.4,2.3-18.7,11.6-32.8-2.5-6.3-6.3-15.2-8.8-26-7.3A45.6,45.6,0,0,0,137,18.9Z"/>
    <path class="b" d="M135.2,4.5A56.7,56.7,0,0,0,127.6,9l-4.4,3.1,2.8,4.1,4.5-3.1c.3-.2,19.6-14.5,34.3-4.7,18.3,12.3,35.6.4,39.5-5.1L200.2.4c-1.9,2.7-16.1,15-32.7,3.9-7.3-4.9-16.6-5.6-26.8-2.1A48,48,0,0,0,135.2,4.5Z"/>
    <path class="b" d="M130.1,21.7a30.8,30.8,0,0,0-7.8,3l2.5,4.3c.8-.5,20.6-11.5,36.6,7.3,18.7,22,41.6,8.3,41.8,8.1l-2.6-4.2c-.8.5-19.5,11.6-35.5-7.1C153,18.8,138.7,19.5,130.1,21.7Z"/>
  </g>
</svg>
